<?xml version="1.0" standalone="no"?>
<!DOCTYPE svg PUBLIC "-//W3C//DTD SVG 20010904//EN"
 "http://www.w3.org/TR/2001/REC-SVG-20010904/DTD/svg10.dtd">
<svg version="1.0" xmlns="http://www.w3.org/2000/svg"
 width="1280.000000pt" height="1168.000000pt" viewBox="0 0 1280.000000 1168.000000"
 preserveAspectRatio="xMidYMid meet">
<metadata>
Created by potrace 1.15, written by Peter Selinger 2001-2017
</metadata>
<g transform="translate(0.000000,1168.000000) scale(0.100000,-0.100000)"
fill="#000000" stroke="none">
<path d="M10315 11666 c-123 -39 -195 -122 -243 -281 -13 -42 -16 -150 -19
-682 l-4 -633 -2982 0 c-1712 0 -3105 -5 -3272 -10 -620 -21 -1071 -94 -1524
-246 -648 -218 -1134 -574 -1464 -1074 -148 -224 -291 -568 -351 -840 -64
-295 -60 -172 -63 -1895 l-4 -1569 98 94 c319 308 1313 1293 1405 1392 l108
117 0 598 0 598 25 95 c90 334 339 641 680 837 283 163 648 256 1106 283 110
6 1290 10 3207 10 l3032 0 0 -597 c1 -635 4 -684 50 -805 13 -35 41 -79 71
-112 108 -118 270 -137 454 -52 68 31 95 58 780 757 390 398 820 837 956 974
261 266 343 365 399 485 32 68 35 83 35 165 0 84 -3 95 -38 165 -20 41 -62
104 -94 140 -31 36 -484 502 -1006 1035 -1035 1058 -990 1016 -1139 1050 -80
18 -148 18 -203 1z"/>
<path d="M11616 6448 l-796 -793 -3 -615 -2 -615 -28 -90 c-184 -592 -710
-972 -1496 -1080 -244 -33 -531 -36 -3546 -33 l-2980 3 -5 645 c-5 626 -6 647
-27 707 -70 207 -224 297 -427 249 -161 -38 -86 31 -1163 -1069 -540 -551
-1000 -1024 -1023 -1052 -22 -27 -58 -84 -78 -125 -34 -68 -37 -81 -37 -160 1
-75 5 -93 33 -151 17 -36 52 -92 77 -124 25 -32 487 -510 1026 -1061 882 -901
987 -1005 1038 -1028 265 -119 469 -43 554 207 21 60 22 81 27 704 l5 642
3190 4 c2260 3 3229 7 3325 15 703 59 1189 175 1649 393 886 421 1412 1186
1490 2168 13 164 15 3051 2 3051 -4 0 -367 -357 -805 -792z"/>
</g>
</svg>
