<?xml version="1.0" encoding="utf-8"?>
<!-- Generator: Adobe Illustrator 22.0.1, SVG Export Plug-In . SVG Version: 6.00 Build 0)  -->
<svg version="1.1" id="Camada_1" xmlns="http://www.w3.org/2000/svg" xmlns:xlink="http://www.w3.org/1999/xlink" x="0px" y="0px"
	 viewBox="0 0 1280 1024" style="enable-background:new 0 0 1280 1024;" xml:space="preserve">
<style type="text/css">
	.st0{font-family:'MontserratAlternates-Bold';}
	.st1{font-size:90px;}
	.st2{font-family:'Montserrat-Regular';}
	.st3{fill:none;}
</style>
<g>
	<path d="M627.2,548.6c3.6-0.3,7.1-0.8,10.5-0.9c3.4,0,6.8,0.4,10.4,0.6c0.3-2.6,0.6-5.4,1.1-8c1.7-9,6.1-15.9,13.4-20.7
		c3-2,6.1-1.3,7.7,1.5c1.5,2.7,0.8,6.1-2.1,8c-7,4.7-9.5,11.8-9.4,20.4c0,1.9,0.6,2.9,2.3,3.8c16.8,9,27.6,23.3,31.5,43.2
		c0.8,4,0.9,8.3,1,12.4c0.1,1.9,0.6,2.8,2.2,3.5c12.9,5.6,25.6,11.8,37.8,19.1c26.1,15.6,29.3,57.1,7.6,78.5
		c-13.6,13.5-35.4,16.6-52.3,7.2c-0.7-0.4-1.4-0.8-2.3-1.2c-0.4,0.9-0.7,1.7-1.1,2.5c-6.8,15.9-15.9,30-28.8,40.7
		c-3.5,2.9-7.6,4.9-11.5,7.1c-1.1,0.6-1.6,1.1-1.6,2.5c0.1,3.5,0.1,6.9,0,10.4c-0.1,4-2.2,6.6-5.3,6.6s-5.2-2.7-5.2-6.7
		c0-3.5,0.1-6.9-0.1-10.4c0-0.7-0.6-1.9-1.2-2.1c-7.6-3-13.7-8.3-19.3-14.4c-9.1-9.8-16.1-21.2-21.4-33.8c-0.3-0.7-0.6-1.4-1-2.4
		c-0.9,0.5-1.8,0.9-2.6,1.4c-23.3,12.6-51.8,2.5-62-22.5c-7.9-19.2-5.7-37.7,6.9-53.9c3.1-4,7.4-7.5,11.7-9.9
		c12-6.6,24.4-12.5,36.7-18.6c1.6-0.8,2.3-1.6,2.4-3.6c0.3-25.3,11.4-43.3,31.7-55.1c1.2-0.7,1.8-1.5,1.8-3c0.1-8.7-2.3-16-9.5-20.8
		c-2.9-1.9-3.6-5.3-2-8c1.6-2.8,4.6-3.5,7.5-1.6c9.1,5.9,13.4,14.9,14.3,26.1C627.1,547.2,627.1,547.9,627.2,548.6
		C627.1,548.5,627.2,548.5,627.2,548.6z M630.1,604.8c-1.1,0.3-1.6,0.4-2,0.6c-16.1,6.5-32.3,12.8-48.3,19.5
		c-11.6,4.9-23.1,10.2-33.5,17.6c-11.8,8.4-17.5,23.5-14.7,38.4c3.8,20.4,23.2,34.5,41.9,30.2c11.1-2.6,18.9-10,24.3-20.6
		c8.1-16,14.4-33,20.3-50C622.2,628.8,626,617.1,630.1,604.8z M646.8,604.8c0.4,1.3,0.6,2.2,0.9,3c7.2,20.4,14.1,41,21.7,61.2
		c3.4,9,7.5,17.8,12.3,26c7.3,12.4,18.4,18.1,32.1,16.9c14.4-1.3,27.6-14,31.3-29.7c3.4-15-2.5-31.1-14.9-39.7
		c-3.8-2.7-7.9-5.1-12-7.3c-18.1-9.6-37-17.1-55.9-24.5C657.1,608.6,652.1,606.8,646.8,604.8z M669.9,696.7
		c-3.2-7.3-6.3-14.3-9.5-21.3c-0.3-0.7-1.6-1.3-2.5-1.3c-13-0.1-26.1,0-39.1-0.1c-1.6,0-2.3,0.6-2.9,2.1c-1.9,4.5-3.9,9-5.9,13.4
		c-1.1,2.4-2.2,4.6-3.4,7.2C627.8,696.7,648.8,696.7,669.9,696.7z M617.6,742.3c4.8,5.4,9.4,10,15.3,12.7c3.3,1.5,6.7,1.8,10,0.3
		c2.6-1.2,5.2-2.7,7.5-4.5c3-2.4,5.6-5.2,8.4-7.8c-0.1-0.2-0.3-0.4-0.4-0.6C645,742.3,631.6,742.3,617.6,742.3z M638.6,614.5
		c-0.2,0-0.4,0-0.6,0c-1.5,4.7-3,9.3-4.6,14.1c3.4,0,6.5,0,9.8,0C641.7,623.7,640.1,619.1,638.6,614.5z"/>
</g>
<text transform="matrix(1 0 0 1 415 893)" class="st0 st1">BEE</text>
<text transform="matrix(1 0 0 1 603.9 893)" class="st2 st1">HAVE</text>
<polygon class="st3" points="574,854 586,854 586,854 "/>
</svg>
