<?xml version="1.0" encoding="utf-8"?>
<!-- Generator: Adobe Illustrator 22.0.1, SVG Export Plug-In . SVG Version: 6.00 Build 0)  -->
<svg version="1.1" id="Camada_1" xmlns="http://www.w3.org/2000/svg" xmlns:xlink="http://www.w3.org/1999/xlink" x="0px" y="0px"
	 viewBox="0 0 1280 1024" style="enable-background:new 0 0 1280 1024;" xml:space="preserve">
<g>
	<path d="M489.5,521.5c0-5.9,0-11.8,0-17.7c0.2-2.1,0.5-4.3,0.7-6.4c3.6-32.6,16.1-61.3,38-85.7c23.3-25.9,52.2-42,86.5-48.1
		c5.7-1,11.5-1.6,17.2-2.4c5.9,0,11.8,0,17.7,0c5.1,0.6,10.2,1.1,15.2,1.9c31.6,5.3,59.2,18.9,81.8,41.5c34,34,49,75.3,44.6,123.1
		c-2.9,32.1-15.5,60.5-36.9,84.6c-28.5,32-64.4,49.3-107.2,51.3c-29.9,1.5-57.9-5.5-83.5-21.1c-39.3-24-63.4-58.7-71.9-104
		C490.8,533,490.3,527.2,489.5,521.5z M638,386.3c-69.8,1.9-125.4,60-123.6,129.1c1.9,69.8,60,125.5,129,123.7
		c69.9-1.9,125.6-60,123.7-129.3C765.3,440,707.1,384.4,638,386.3z"/>
	<path d="M653.3,463.9c0,13.8,0,27.6,0.1,41.4c0,1.4,0.6,3.1,1.6,4.1c14.2,16.3,28.5,32.4,42.7,48.6c5.3,6,5.5,13,0.8,18
		c-4.6,4.8-12,5.2-17.1,0.9c-0.9-0.8-1.7-1.6-2.5-2.5c-15.8-17.9-31.6-35.7-47.2-53.7c-1.8-2.1-3.1-5.3-3.1-8
		c-0.2-30.3-0.2-60.7-0.1-91c0-6.9,5.6-12.1,12.3-12.1c6.9,0,12.4,5.2,12.4,12.3C653.3,435.9,653.3,449.9,653.3,463.9
		C653.3,463.9,653.3,463.9,653.3,463.9z"/>
</g>
</svg>
