<?xml version="1.0" encoding="utf-8"?>
<!-- Generator: Adobe Illustrator 22.0.1, SVG Export Plug-In . SVG Version: 6.00 Build 0)  -->
<svg version="1.1" id="Camada_1" xmlns="http://www.w3.org/2000/svg" xmlns:xlink="http://www.w3.org/1999/xlink" x="0px" y="0px"
	 viewBox="0 0 1280 1024" style="enable-background:new 0 0 1280 1024;" xml:space="preserve">
<g>
	<path d="M754,518c-1.6,5.9-2.5,12.1-4.8,17.7c-9.7,24.6-28.4,40.4-52,50.3c-40.4,16.9-80.7,15.5-120-4.1c-2.7-1.4-4.6-1.4-7.2,0.2
		c-8.5,5.2-17,10.4-25.8,15.2c-2.1,1.2-6,1.8-7.5,0.6c-1.4-1.2-1.7-5.1-1-7.4c2.8-9.6,6.1-19,9.4-28.4c1-2.9,1-5-1.1-7.7
		c-8.5-10.7-12.9-23.1-15.1-36.4c0-4.3,0-8.7,0-13c2.1-11.3,5.4-22.2,12-31.9c13.9-20.6,33.6-33.6,56.9-40.6
		c40.6-12.3,80-9.2,116.4,13.8c21.1,13.3,35.6,31.7,39.1,57.4c0.1,0.5,0.4,0.9,0.6,1.4C754,509.3,754,513.7,754,518z M548.8,583
		c7.6-4.5,14.1-8.2,20.5-12.1c3.1-1.9,5.6-1.9,8.8,0c17.4,10.2,36.4,15.4,56.5,16.3c28.4,1.3,55-4.7,78.4-21.4
		c15.4-11,26.7-25.1,30-44.3c4.2-24.6-5.9-44-24.1-59.5c-22-18.8-48.3-26.1-76.7-26.2c-29.2-0.1-56,7.5-78.6,26.7
		c-29,24.6-32.4,59.7-8.8,89c2.4,3,2.8,5.6,1.5,9.1C553.7,567.6,551.5,574.7,548.8,583z"/>
	<path d="M641.5,505.2c5.4,0,10.1,4.8,10.1,10.3c0,5.6-4.6,10.1-10.2,10.1c-5.6,0-10.1-4.6-10.1-10.2
		C631.4,509.9,636.1,505.1,641.5,505.2z"/>
	<path d="M597.9,505.2c5.4,0.1,10.1,5,10,10.4c-0.1,5.6-4.8,10-10.4,9.9c-5.7-0.1-9.9-4.5-9.8-10.3
		C587.8,509.6,592.4,505,597.9,505.2z"/>
	<path d="M695.4,515.3c0.1,5.8-4.2,10.2-9.9,10.3c-5.6,0-10.2-4.4-10.3-10c-0.1-5.4,4.6-10.3,10-10.4
		C690.7,505.1,695.3,509.6,695.4,515.3z"/>
</g>
</svg>
