<?xml version="1.0" encoding="utf-8"?>
<!-- Generator: Adobe Illustrator 22.0.1, SVG Export Plug-In . SVG Version: 6.00 Build 0)  -->
<svg version="1.1" id="Camada_1" xmlns="http://www.w3.org/2000/svg" xmlns:xlink="http://www.w3.org/1999/xlink" x="0px" y="0px"
	 viewBox="0 0 1280 1024" style="enable-background:new 0 0 1280 1024;" xml:space="preserve">
<style type="text/css">
	.st0{fill:#FFFFFF;}
</style>
<g>
	<path class="st0" d="M876.7,610.2C876.7,610.2,876.7,610.2,876.7,610.2c0-33.3-0.1-66.7,0-100c0-6.9-2.4-12-7.8-16.3
		c-70.3-55.9-140.4-112-210.6-168c-11.2-8.9-22.5-8.9-33.7,0c-70.2,56-140.4,112.1-210.6,168c-5.4,4.3-7.8,9.4-7.8,16.3
		c0.1,66.8,0.1,133.7,0.1,200.5c0,16.2,10,26.3,26.1,26.3c37.7,0.1,75.3,0,113,0c12.4,0,18.8-6.3,18.8-18.7c0-22.2,0-44.3,0-66.5
		c0-29.8,0-59.7,0-89.5c0-12.5,6.5-19.9,18-20c39.5-0.1,79-0.1,118.5,0c10.7,0,17.4,6.9,17.9,17.5c0.1,1.8,0.1,3.7,0.1,5.5
		c0,50.7,0,101.3,0,152c0,13.7,6.1,19.7,19.9,19.7c37,0,74,0,111,0c17.3,0,27.1-10,27.1-27.4C876.7,676.5,876.7,643.3,876.7,610.2z
		 M780.2,312.6c-2.6-2.1-4.2-3.3-5.7-4.5c-38.6-30.8-77.1-61.5-115.7-92.3c-11.8-9.4-22.7-9.5-34.4-0.1
		c-94.5,75.5-189.1,150.9-283.6,226.4c-8.5,6.7-9.5,15-2.9,23.5c6.3,8,12.7,15.9,19,23.9c3.6,4.5,8.3,7.3,13.9,6
		c3.9-0.9,7.7-3.2,10.8-5.7c80.9-64.5,161.8-129,242.7-193.6c11.9-9.5,22.7-9.5,34.8,0.1c19.8,15.8,39.6,31.6,59.4,47.4
		c61.5,49.1,122.9,98.1,184.4,147.2c9.3,7.4,17,6.5,24.5-2.8c5.7-7.1,11.4-14.3,17.1-21.5c7.5-9.5,6.7-17.4-2.8-24.9
		c-30.5-24.3-60.9-48.7-91.5-72.9c-3.2-2.5-4.5-5-4.5-9.1c0.2-33.7,0.1-67.3,0.1-101c0-9.8-5.5-16.1-14.4-16.2
		c-12.3-0.2-24.7-0.2-37,0c-8.3,0.2-13.9,6.2-14.2,14.4c-0.1,2.2,0,4.3,0,6.5C780.2,279.3,780.2,295.3,780.2,312.6z"/>
	<path d="M876.7,610.2c0,33.2,0,66.3,0,99.5c0,17.5-9.8,27.4-27.1,27.4c-37,0-74,0-111,0c-13.8,0-19.9-6-19.9-19.7
		c0-50.7,0-101.3,0-152c0-1.8,0-3.7-0.1-5.5c-0.6-10.6-7.3-17.4-17.9-17.5c-39.5-0.1-79-0.1-118.5,0c-11.5,0-18,7.5-18,20
		c0,29.8,0,59.7,0,89.5c0,22.2,0,44.3,0,66.5c0,12.4-6.3,18.7-18.8,18.7c-37.7,0-75.3,0-113,0c-16.1,0-26.1-10.1-26.1-26.3
		c0-66.8,0-133.7-0.1-200.5c0-6.9,2.4-12,7.8-16.3c70.3-55.9,140.4-112,210.6-168c11.1-8.9,22.5-8.9,33.7,0
		c70.2,56,140.4,112.1,210.6,168c5.4,4.3,7.9,9.4,7.8,16.3C876.6,543.5,876.7,576.8,876.7,610.2
		C876.7,610.2,876.7,610.2,876.7,610.2z"/>
	<path d="M780.2,312.6c0-17.3,0-33.3,0-49.3c0-2.2-0.1-4.3,0-6.5c0.3-8.2,5.9-14.2,14.2-14.4c12.3-0.3,24.7-0.2,37,0
		c9,0.2,14.4,6.5,14.4,16.2c0,33.7,0.1,67.3-0.1,101c0,4.1,1.3,6.6,4.5,9.1c30.6,24.2,61,48.6,91.5,72.9c9.4,7.5,10.3,15.5,2.8,24.9
		c-5.7,7.2-11.4,14.3-17.1,21.5c-7.5,9.3-15.2,10.2-24.5,2.8c-61.5-49-122.9-98.1-184.4-147.2c-19.8-15.8-39.6-31.6-59.4-47.4
		c-12.1-9.6-22.9-9.6-34.8-0.1c-80.9,64.5-161.7,129.1-242.7,193.6c-3.2,2.5-7,4.8-10.8,5.7c-5.6,1.3-10.3-1.5-13.9-6
		c-6.3-8-12.7-15.9-19-23.9c-6.6-8.4-5.5-16.7,2.9-23.5c94.5-75.5,189.1-150.9,283.6-226.4c11.7-9.4,22.6-9.3,34.4,0.1
		c38.6,30.8,77.1,61.5,115.7,92.3C776,309.4,777.5,310.6,780.2,312.6z"/>
</g>
</svg>
