<?xml version="1.0" encoding="utf-8"?>
<!-- Generator: Adobe Illustrator 22.0.1, SVG Export Plug-In . SVG Version: 6.00 Build 0)  -->
<svg version="1.1" id="Camada_1" xmlns="http://www.w3.org/2000/svg" xmlns:xlink="http://www.w3.org/1999/xlink" x="0px" y="0px"
	 viewBox="0 0 1280 1024" style="enable-background:new 0 0 1280 1024;" xml:space="preserve">
<g>
	<path d="M510,588c0-50.3,0-100.7,0-151c2.7-10.6,9.5-17.1,20-20c74.3,0,148.7,0,223,0c10.5,2.8,17.1,9.5,20,20
		c0,50.3,0,100.7,0,151c-2.8,10.5-9.5,17.1-20,20c-74.3,0-148.7,0-223,0C519.5,605.2,512.8,598.5,510,588z M529.7,429.3
		c1.7,1.9,2.5,2.9,3.4,3.8c32.9,32.8,65.9,65.6,98.8,98.5c6.7,6.6,12.5,6.5,19.4-0.3c32.7-32.6,65.4-65.2,98.1-97.8
		c1.1-1.1,2.1-2.3,3.7-4.1C678.4,429.3,604.6,429.3,529.7,429.3z M678.2,520.6c-6.5,6.7-12.5,13.1-18.8,19.3
		c-11.3,11.2-24.7,11.2-36-0.2c-6.2-6.2-12.3-12.7-17.7-18.3c-25.1,25.3-49.6,50-73.4,74c72.4,0,146.2,0,220,0
		C727.6,570.5,703.3,545.9,678.2,520.6z M522.1,585.7c24.7-25,48.9-49.4,71.8-72.5c-23.7-24-47.8-48.4-71.8-72.7
		C522.1,488.4,522.1,536.6,522.1,585.7z M760.7,585.4c0-48.8,0-97.1,0-145.9c-24.6,24.8-48.7,49.2-72.2,72.9
		C712.2,536.4,736.3,560.7,760.7,585.4z"/>
</g>
</svg>
