<?xml version="1.0" encoding="utf-8"?>
<!-- Generator: Adobe Illustrator 22.0.1, SVG Export Plug-In . SVG Version: 6.00 Build 0)  -->
<svg version="1.1" id="Camada_1" xmlns="http://www.w3.org/2000/svg" xmlns:xlink="http://www.w3.org/1999/xlink" x="0px" y="0px"
	 viewBox="0 0 1280 1024" style="enable-background:new 0 0 1280 1024;" xml:space="preserve">
<g>
	<path d="M660,257c4.6,1.3,9.1,2.6,13.7,3.9c5.6,1.6,7.5,4.6,5.7,10c-6.6,20.5-13.3,41.1-20.1,61.5c-1.7,5.1-4.5,6-11.3,4.4
		c-5-1.2-7.3-3.9-6.6-8.3c3.1-20.9,6.3-41.7,9.3-62.6c0.6-3.9,2-6.9,5.4-8.9C657.3,257,658.7,257,660,257z"/>
	<path d="M612.3,636.5c22.5,17.1,25.8,24.1,20,41.7c14,9.6,28,19.2,41.9,28.8c7.5,5.2,9.1,13.6,3.8,19.8c-1.5,1.7-3.5,3.1-5.5,4.1
		c-12.9,6.6-25.8,13.2-38.7,19.7c-7.9,4-14.6,2.5-20.5-4.5c-15.3-18.3-32-34.8-52.9-46.8c-1.4-0.8-3-1.5-4.4-2.4
		c-6.7-4.3-12.1-5.2-19.7,0.3c-13.2,9.6-29,9.6-44.2,5c-38.9-11.7-63.9-37.3-73.4-76.9c-4.6-19.1,0.3-36.1,14.6-50.8
		c14.8-15.2,28.7-31.5,42-48.2c16.3-20.4,22.1-44.7,22.9-70.5c0.5-17.6,0.6-35.3,2.1-52.9c1.9-22.1,11.9-40.8,28-55.9
		c10.1-9.5,22.9-10.8,36-9.4c25.6,2.8,48.4,13.4,69.8,26.8C691.3,400.6,737,447.7,768.5,508c8.2,15.7,14.1,32.3,15.9,50.1
		c1.7,16.6-2.3,30.7-15.7,42c-17,14.4-36.5,21.6-58.5,22.7c-14.8,0.7-29.7,0.6-44.5,1.1c-17.4,0.7-34.5,3.1-50.3,11
		C614.5,635.3,613.6,635.8,612.3,636.5z M542.5,384.7c0.3,2.6,0.5,5.3,1,7.9c3,15.6,10.1,29.5,18.2,42.9
		c20.4,33.4,46.3,62.1,75.6,88c20.5,18.2,42.2,34.8,67.4,46c9.6,4.3,20,7.2,30.4,9c12.8,2.2,22.1-5.5,23-17.6
		c0.3-3.3,0.5-6.9-0.5-9.9c-3.6-11-6.4-22.6-12-32.6c-33.1-59.2-79.6-105.4-137.6-140.2c-12.4-7.5-25.8-13-40.4-15
		C552,361.2,542.3,369.4,542.5,384.7z M701,597.1C622.6,557.7,564,499.4,525.2,420c-0.1,2.7-0.2,4.5-0.3,6.3
		c-0.3,12.8-0.4,25.6-1,38.4c-1.1,23-7,44.6-18.7,64.5c-1.7,2.8-2.4,7-1.8,10.3c6.2,37.1,39.9,71.2,77.1,78.4
		c5.5,1.1,10.4,0.5,15.6-2.4c8.3-4.5,17-8.4,26-11.3c21-6.7,42.9-7.2,64.7-7.1C691.4,597.1,696.2,597.1,701,597.1z"/>
	<path d="M793.5,345.3c-1.4,2-2.3,4.3-3.9,5.7c-16.5,14.1-33,28-49.6,41.9c-4,3.3-7.1,2.7-11.3-1.4c-4.5-4.5-5-7.5-1.5-11.7
		c13.8-16.5,27.7-32.9,41.6-49.2c3.8-4.5,7.2-4.6,11.5-0.5c3.4,3.2,6.7,6.5,9.9,9.9C791.3,341.3,792.1,343.2,793.5,345.3z"/>
	<path d="M793.1,477.8c-5.5,0-7.6-2.5-8.8-9.4c-0.8-4.9,1.5-7.5,5.9-8.9c18.4-5.7,36.7-11.5,55.1-17.3c13.4-4.2,14.4-3.6,17.4,10
		c0.6,2.8,1.3,5.5,1.8,8.3c0.7,4.1-1.1,7.4-4.9,8C837.3,471.9,814.9,474.8,793.1,477.8z"/>
	<path d="M671,524c-28.2-21.3-52.9-46-74.4-74c15.3-12,46.3-13.8,66.8,6.1C681.6,473.6,685.4,504.6,671,524z"/>
</g>
</svg>
