<?xml version="1.0" encoding="utf-8"?>
<!-- Generator: Adobe Illustrator 22.0.1, SVG Export Plug-In . SVG Version: 6.00 Build 0)  -->
<svg version="1.1" id="Camada_1" xmlns="http://www.w3.org/2000/svg" xmlns:xlink="http://www.w3.org/1999/xlink" x="0px" y="0px"
	 viewBox="0 0 1280 1024" style="enable-background:new 0 0 1280 1024;" xml:space="preserve">
<g>
	<path d="M754,600c-3.4,8.4-9.7,11.1-18.5,11.1c-40-0.3-79.9-0.1-119.9-0.1c-9.1,0-15.2-4.8-16-12.4c-1-8.8,5.3-15.5,14.7-15.5
		c34.5-0.1,68.9,0,103.4,0c6.2,0,12.3,0.3,18.5-0.1c8.8-0.6,14.8,2.8,17.8,11.1C754,596,754,598,754,600z"/>
	<path d="M754,459c-3,8.3-8.9,11.3-17.7,11.2c-39.6-0.3-79.3-0.1-118.9-0.1c-2.7,0-5.4,0.1-7.9-0.5c-6-1.4-10-7.1-10-13.4
		c0-6.2,4.1-11.7,10.1-13.3c2.2-0.6,4.6-0.7,6.9-0.7c39.6,0,79.3,0.1,118.9-0.1c8.8-0.1,15.2,2.5,18.6,10.9C754,455,754,457,754,459
		z"/>
	<path d="M754,530c-3.5,8-9.6,10.6-18.3,10.6c-40.1-0.3-80.2-0.1-120.4-0.1c-8.1,0-13.4-3.4-15.3-9.5c-2.8-9.1,3.4-18,13-18.1
		c42.5-0.1,84.9-0.1,127.4,0c7.4,0,11.2,4.8,13.6,11.2C754,526,754,528,754,530z"/>
	<path d="M529,586c3.5-10,9.6-16.9,21.1-17.1c10.6-0.1,19.5,7.8,20.8,18.3c1.3,10.3-5.2,20.1-15.2,22.8c-10.3,2.8-20.9-2.3-25-12.1
		c-0.6-1.3-1.2-2.6-1.8-4C529,591.3,529,588.7,529,586z"/>
	<path d="M529,445c3-7.9,7.5-14.3,16.5-16.2c11.1-2.4,21.6,3.8,24.7,14.7c3,10.6-2.6,21.7-12.8,25.5c-10.5,3.8-22.1-1.2-26.5-11.5
		c-0.6-1.5-1.2-3-1.9-4.5C529,450.3,529,447.7,529,445z"/>
	<path d="M529,516c4.8-12.4,11-17.4,21.4-17.3c10.5,0.1,19.2,7.7,20.5,18.1c1.3,10.2-5.2,20.2-15.1,22.9c-10.3,2.8-21-2.3-25-12.2
		c-0.6-1.5-1.2-3.1-1.8-4.6C529,520.7,529,518.3,529,516z"/>
</g>
</svg>
