<?xml version="1.0" encoding="utf-8"?>
<!-- Generator: Adobe Illustrator 22.0.1, SVG Export Plug-In . SVG Version: 6.00 Build 0)  -->
<svg version="1.1" id="Camada_1" xmlns="http://www.w3.org/2000/svg" xmlns:xlink="http://www.w3.org/1999/xlink" x="0px" y="0px"
	 viewBox="0 0 1280 1024" style="enable-background:new 0 0 1280 1024;" xml:space="preserve">
<style type="text/css">
	.st0{fill:#FFFFFF;}
</style>
<g>
	<path d="M1081,192c0,248,0,496,0,744c-0.3,1.6-0.7,3.2-0.8,4.8c-2.4,28.5-22.6,52.7-50.1,59.9c-3,0.8-6.1,1.5-9.1,2.2
		c-253.3,0-506.7,0-760,0c-3.2-0.8-6.4-1.5-9.6-2.4c-30-8.3-49.6-34.6-49.6-67c0-108.2,0-216.3,0-324.5c0-138.5,0-277,0-415.5
		c0-40.1,29.4-69.4,69.4-69.4c20,0,40,0,60,0c1.8,0,3.5,0,5.7,0c0,10.7-0.1,20.7,0.1,30.6c0.1,6.5,0.2,13,1.2,19.4
		c7.1,46.5,46.7,82.2,93.9,84.9c47.9,2.8,91.4-27.9,103.6-74c2.6-9.9,3.2-20.3,3.9-30.6c0.6-9.9,0.1-19.9,0.1-29.9
		c67.9,0,135.1,0,202.7,0c0,9.7-0.2,19,0.1,28.3c0.2,7.1,0.3,14.4,1.4,21.4c7.2,48.2,48.9,84.1,98.9,85.2
		c47.3,1,91.2-33.5,99.9-80.2c2.9-15.5,1.8-31.8,2.5-47.8c0.1-2.3,0-4.5,0-6.9c1.5-0.2,2.3-0.4,3.1-0.4c22,0,44-0.5,66,0.1
		c31.4,0.9,56.7,21.4,64.2,51.3C1079.8,181.1,1080.2,186.6,1081,192z M1016.9,938.8c0-210.8,0-421.2,0-631.7
		c-250.7,0-501.1,0-751.7,0c0,210.7,0,421,0,631.7C515.8,938.8,766.1,938.8,1016.9,938.8z"/>
	<path d="M445,23c5.4,1.5,11.1,2.4,16.2,4.5c25.4,10.7,40.6,29.9,42,57.5c1.3,27.2,1.3,54.7-0.4,81.9c-2.1,32.6-30.3,57.6-63.7,58.9
		c-32.1,1.3-61.6-22.4-67.2-54c-0.8-4.7-1.1-9.6-1.2-14.4c-0.1-22-0.1-44,0-65.9c0.1-35.2,21.8-61.1,56.4-67.6
		c0.6-0.1,1.2-0.5,1.8-0.8C434.3,23,439.7,23,445,23z"/>
	<path d="M851,23c6.6,2.1,13.6,3.3,19.8,6.3C895,41.2,908.2,60.9,909,87.9c0.6,24.5,0.4,49,0.1,73.4c-0.5,34.6-28.4,62.5-63.8,64.3
		c-33.7,1.8-64.6-24.1-68.2-57.9c-1.4-13.2-0.8-26.6-0.8-39.9c0-15.5-0.7-31.1,0.8-46.4c2.9-29.8,25.5-52.6,55.2-57.6
		c1-0.2,1.9-0.6,2.8-0.9C840.3,23,845.7,23,851,23z"/>
	<path class="st0" d="M1021,1003c3-0.7,6.1-1.4,9.1-2.2c27.5-7.2,47.7-31.5,50.1-59.9c0.1-1.6,0.5-3.2,0.8-4.8c0,22.3,0,44.7,0,67
		C1061,1003,1041,1003,1021,1003z"/>
	<path d="M437.8,499.1c-33.6,0-66.9,0-100.6,0c0-33.6,0-67,0-100.7c33.4,0,66.8,0,100.6,0C437.8,431.8,437.8,465.3,437.8,499.1z"/>
	<path d="M506.1,499c0-33.7,0-66.9,0-100.6c33.5,0,67,0,100.8,0c0,33.5,0,66.9,0,100.6C573.4,499,540,499,506.1,499z"/>
	<path d="M775.8,499.1c-33.6,0-66.9,0-100.6,0c0-33.7,0-67,0-100.7c33.5,0,66.8,0,100.6,0C775.8,431.8,775.8,465.3,775.8,499.1z"/>
	<path d="M844.1,499c0-33.7,0-67.1,0-100.7c33.7,0,67,0,100.7,0c0,33.6,0,67,0,100.7C911.4,499,878,499,844.1,499z"/>
	<path d="M437.8,668.1c-33.6,0-67,0-100.6,0c0-33.7,0-67.1,0-100.8c33.5,0,66.9,0,100.6,0C437.8,600.8,437.8,634.3,437.8,668.1z"/>
	<path d="M606.9,567.3c0,33.7,0,67.1,0,100.8c-33.7,0-67,0-100.7,0c0-33.6,0-67,0-100.8C539.6,567.3,573,567.3,606.9,567.3z"/>
	<path d="M775.8,668c-33.6,0-67,0-100.6,0c0-33.7,0-67.1,0-100.8c33.5,0,66.9,0,100.6,0C775.8,600.8,775.8,634.3,775.8,668z"/>
	<path d="M844.1,667.9c0-33.7,0-67.1,0-100.7c33.6,0,67,0,100.7,0c0,33.5,0,66.9,0,100.7C911.4,667.9,878,667.9,844.1,667.9z"/>
	<path d="M437.9,736.3c0,33.6,0,67,0,100.6c-33.6,0-67,0-100.7,0c0-33.5,0-66.9,0-100.6C370.6,736.3,404,736.3,437.9,736.3z"/>
	<path d="M506.1,836.9c0-33.6,0-66.9,0-100.5c33.5,0,67,0,100.8,0c0,33.4,0,66.8,0,100.5C573.4,836.9,540,836.9,506.1,836.9z"/>
	<path d="M675.2,736.3c33.7,0,67.1,0,100.7,0c0,33.6,0,67,0,100.7c-33.6,0-67,0-100.7,0C675.2,803.5,675.2,770.1,675.2,736.3z"/>
	<path d="M944.9,736.4c0,33.7,0,66.9,0,100.5c-33.6,0-66.9,0-100.7,0c0-33.4,0-66.7,0-100.5C877.7,736.4,911.3,736.4,944.9,736.4z"
		/>
</g>
</svg>
